<svg id="ecfVe7MIz4Q1" xmlns="http://www.w3.org/2000/svg" xmlns:xlink="http://www.w3.org/1999/xlink" viewBox="0 0 480 380" shape-rendering="geometricPrecision" text-rendering="geometricPrecision">
    <style>
    <![CDATA[#ecfVe7MIz4Q22_tr {animation: ecfVe7MIz4Q22_tr__tr 6000ms linear infinite normal forwards}@keyframes ecfVe7MIz4Q22_tr__tr { 0% {transform: translate(60.261209px,113.988567px) rotate(20deg)} 5% {transform: translate(60.261209px,113.988567px) rotate(20deg)} 11.666667% {transform: translate(60.261209px,113.988567px) rotate(0deg)} 21.666667% {transform: translate(60.261209px,113.988567px) rotate(0deg)} 28.333333% {transform: translate(60.261209px,113.988567px) rotate(20deg)} 41.666667% {transform: translate(60.261209px,113.988567px) rotate(20deg)} 48.333333% {transform: translate(60.261209px,113.988567px) rotate(0deg)} 55% {transform: translate(60.261209px,113.988567px) rotate(0deg)} 61.666667% {transform: translate(60.261209px,113.988567px) rotate(20deg)} 88.333333% {transform: translate(60.261209px,113.988567px) rotate(20deg)} 100% {transform: translate(60.261209px,113.988567px) rotate(20deg)}} #ecfVe7MIz4Q29_tr {animation: ecfVe7MIz4Q29_tr__tr 6000ms linear infinite normal forwards}@keyframes ecfVe7MIz4Q29_tr__tr { 0% {transform: translate(101.996677px,217.103905px) rotate(0deg)} 3.333333% {transform: translate(101.996677px,217.103905px) rotate(5deg)} 6.666667% {transform: translate(101.996677px,217.103905px) rotate(0deg)} 23.333333% {transform: translate(101.996677px,217.103905px) rotate(0deg)} 26.666667% {transform: translate(101.996677px,217.103905px) rotate(5deg)} 30% {transform: translate(101.996677px,217.103905px) rotate(0deg)} 33.333333% {transform: translate(101.996677px,217.103905px) rotate(5deg)} 36.666667% {transform: translate(101.996677px,217.103905px) rotate(0deg)} 40% {transform: translate(101.996677px,217.103905px) rotate(5deg)} 43.333333% {transform: translate(101.996677px,217.103905px) rotate(0deg)} 56.666667% {transform: translate(101.996677px,217.103905px) rotate(0deg)} 60% {transform: translate(101.996677px,217.103905px) rotate(5deg)} 63.333333% {transform: translate(101.996677px,217.103905px) rotate(0deg)} 66.666667% {transform: translate(101.996677px,217.103905px) rotate(5deg)} 70% {transform: translate(101.996677px,217.103905px) rotate(0deg)} 73.333333% {transform: translate(101.996677px,217.103905px) rotate(5deg)} 76.666667% {transform: translate(101.996677px,217.103905px) rotate(0deg)} 90% {transform: translate(101.996677px,217.103905px) rotate(0deg)} 93.333333% {transform: translate(101.996677px,217.103905px) rotate(5deg)} 96.666667% {transform: translate(101.996677px,217.103905px) rotate(0deg)} 100% {transform: translate(101.996677px,217.103905px) rotate(5deg)}} #ecfVe7MIz4Q35 {animation: ecfVe7MIz4Q35_c_o 6000ms linear infinite normal forwards}@keyframes ecfVe7MIz4Q35_c_o { 0% {opacity: 0} 66.666667% {opacity: 0} 75% {opacity: 1} 91.666667% {opacity: 1} 100% {opacity: 0}} #ecfVe7MIz4Q51 {animation: ecfVe7MIz4Q51_c_o 6000ms linear infinite normal forwards}@keyframes ecfVe7MIz4Q51_c_o { 0% {opacity: 0} 33.333333% {opacity: 0} 41.666667% {opacity: 1} 58.333333% {opacity: 1} 66.666667% {opacity: 0} 100% {opacity: 0}} #ecfVe7MIz4Q74 {animation: ecfVe7MIz4Q74_c_o 6000ms linear infinite normal forwards}@keyframes ecfVe7MIz4Q74_c_o { 0% {opacity: 0} 8.333333% {opacity: 1} 25% {opacity: 1} 33.333333% {opacity: 0} 100% {opacity: 0}}]]>
    </style>
    <g id="ecfVe7MIz4Q2" clip-path="url(#ecfVe7MIz4Q79)">
    <g id="ecfVe7MIz4Q3">
    <path id="ecfVe7MIz4Q4" d="M480,7.907960L192.141000,7.907960L192.141000,144.780000L480,144.780000L480,7.907960Z" fill="rgb(230,230,230)" stroke="none" stroke-width="1"/>
    <path id="ecfVe7MIz4Q5" d="M471.769000,19.645000L200.373000,19.645000L200.373000,133.842000L471.769000,133.842000L471.769000,19.645000Z" fill="rgb(255,255,255)" stroke="none" stroke-width="1"/>
    <path id="ecfVe7MIz4Q6" d="M479.877000,0L192.019000,0L192.019000,12.254000L479.877000,12.254000L479.877000,0Z" fill="rgb(17,17,17)" stroke="none" stroke-width="1"/>
    <path id="ecfVe7MIz4Q7" d="M201.106000,9.477050C202.358000,9.477050,203.373000,8.460180,203.373000,7.205810C203.373000,5.951440,202.358000,4.934570,201.106000,4.934570C199.855000,4.934570,198.840000,5.951440,198.840000,7.205810C198.840000,8.460180,199.855000,9.477050,201.106000,9.477050Z" fill="rgb(245,0,87)" stroke="none" stroke-width="1"/>
    <path id="ecfVe7MIz4Q8" d="M209.710000,9.477050C210.962000,9.477050,211.976000,8.460180,211.976000,7.205810C211.976000,5.951440,210.962000,4.934570,209.710000,4.934570C208.458000,4.934570,207.443000,5.951440,207.443000,7.205810C207.443000,8.460180,208.458000,9.477050,209.710000,9.477050Z" fill="rgb(249,168,38)" stroke="none" stroke-width="1"/>
    <path id="ecfVe7MIz4Q9" d="M218.313000,9.477050C219.565000,9.477050,220.580000,8.460180,220.580000,7.205810C220.580000,5.951440,219.565000,4.934570,218.313000,4.934570C217.062000,4.934570,216.047000,5.951440,216.047000,7.205810C216.047000,8.460180,217.062000,9.477050,218.313000,9.477050Z" fill="rgb(0,191,166)" stroke="none" stroke-width="1"/>
    <path id="ecfVe7MIz4Q10" d="M137.337000,228.385000C137.346000,226.819000,137.025000,225.269000,136.394000,223.837000C135.763000,222.404000,134.837000,221.121000,133.677000,220.072000C132.517000,219.023000,131.149000,218.231000,129.662000,217.749000C128.176000,217.266000,126.604000,217.104000,125.051000,217.272000C124.559000,217.328000,124.072000,217.418000,123.593000,217.542000L86.052800,185.298000L88.296100,173.182000L69.793200,167.173000L64.214500,186.590000C63.554600,188.921000,63.662100,191.402000,64.521100,193.667000C65.380000,195.931000,66.944700,197.857000,68.982800,199.160000L115.164000,228.428000C115.164000,228.792000,115.183000,229.156000,115.220000,229.518000C115.389000,231.075000,115.884000,232.578000,116.673000,233.930000C117.462000,235.282000,118.527000,236.452000,119.799000,237.362000C121.070000,238.273000,122.519000,238.904000,124.051000,239.214000C125.583000,239.524000,127.163000,239.506000,128.688000,239.162000C129.131000,239.064000,129.567000,238.938000,129.995000,238.784000C132.132000,238.010000,133.981000,236.598000,135.294000,234.739000C136.607000,232.880000,137.320000,230.663000,137.337000,228.385000Z" fill="rgb(255,184,184)" stroke="none" stroke-width="1"/>
    <path id="ecfVe7MIz4Q11" d="M44.008000,265.780000L92.409400,265.780000C92.409400,267.174000,142.293000,268.306000,142.293000,268.306000C143.076000,268.896000,143.790000,269.574000,144.420000,270.326000C146.315000,272.591000,147.351000,275.453000,147.344000,278.408000L147.344000,280.428000C147.343000,283.777000,146.015000,286.988000,143.652000,289.356000C141.289000,291.724000,138.084000,293.055000,134.742000,293.056000L44.008000,293.056000C40.666600,293.053000,37.462900,291.722000,35.100200,289.354000C32.737500,286.987000,31.408900,283.776000,31.406000,280.428000L31.406000,278.408000C31.410600,275.060000,32.739800,271.851000,35.102200,269.484000C37.464500,267.117000,40.667100,265.785000,44.008000,265.780000Z" fill="rgb(63,61,86)" stroke="none" stroke-width="1"/>
    <path id="ecfVe7MIz4Q12" d="M96.657800,292.554000L83.551800,292.554000L83.551800,377.412000L96.657800,377.412000L96.657800,292.554000Z" fill="rgb(63,61,86)" stroke="none" stroke-width="1"/>
    <path id="ecfVe7MIz4Q13" d="M133.960000,378.468000C133.960000,380.057000,114.099000,379.082000,89.600700,379.082000C65.101900,379.082000,45.241700,380.057000,45.241700,378.468000C45.241700,376.879000,65.101900,364.280000,89.600700,364.280000C114.099000,364.280000,133.960000,376.879000,133.960000,378.468000Z" fill="rgb(63,61,86)" stroke="none" stroke-width="1"/>
    <path id="ecfVe7MIz4Q14" d="M122.129000,367.005000L134.488000,367.004000L140.368000,334.882000L122.126000,334.883000L122.129000,367.005000Z" fill="rgb(255,184,184)" stroke="none" stroke-width="1"/>
    <path id="ecfVe7MIz4Q15" d="M118.976000,379.010000L158.829000,379.009000L158.829000,378.503000C158.829000,376.462000,158.428000,374.441000,157.648000,372.555000C156.869000,370.669000,155.726000,368.956000,154.286000,367.513000C152.846000,366.069000,151.136000,364.924000,149.254000,364.143000C147.372000,363.362000,145.355000,362.960000,143.318000,362.960000L143.316000,362.960000L118.975000,362.961000L118.976000,379.010000Z" fill="rgb(47,46,65)" stroke="none" stroke-width="1"/>
    <path id="ecfVe7MIz4Q16" d="M140.614000,347.086000L165.255000,291.718000C167.312000,287.052000,167.539000,281.780000,165.892000,276.953000C164.244000,272.125000,160.843000,268.097000,156.364000,265.671000L102.918000,236.953000L78.529700,234.874000L56.032900,232.825000L55.870700,233.100000C55.663200,233.451000,50.826200,241.823000,54.095900,251.003000C56.575900,257.966000,63.027000,263.405000,73.269800,267.168000C97.177600,275.952000,124.796000,283.460000,135.560000,286.279000C136.036000,286.401000,136.481000,286.623000,136.865000,286.929000C137.249000,287.236000,137.564000,287.620000,137.790000,288.057000C138.015000,288.489000,138.150000,288.964000,138.184000,289.450000C138.218000,289.937000,138.151000,290.425000,137.987000,290.885000L115.096000,342.420000C114.857000,343.074000,114.770000,343.774000,114.844000,344.466000C114.918000,345.158000,115.149000,345.824000,115.520000,346.413000C115.891000,347.001000,116.392000,347.497000,116.984000,347.860000C117.577000,348.224000,118.244000,348.447000,118.936000,348.511000L136.041000,349.759000C136.186000,349.773000,136.331000,349.780000,136.475000,349.780000C137.351000,349.780000,138.208000,349.525000,138.943000,349.047000C139.677000,348.569000,140.258000,347.887000,140.614000,347.086000Z" fill="rgb(203,203,203)" stroke="none" stroke-width="1"/>
    <path id="ecfVe7MIz4Q17" d="M114.063000,367.005000L126.422000,367.004000L132.303000,334.882000L114.061000,334.883000L114.063000,367.005000Z" fill="rgb(255,184,184)" stroke="none" stroke-width="1"/>
    <path id="ecfVe7MIz4Q18" d="M110.911000,379.010000L150.764000,379.009000L150.764000,378.503000C150.764000,376.462000,150.363000,374.441000,149.583000,372.555000C148.803000,370.669000,147.661000,368.956000,146.221000,367.513000C144.780000,366.069000,143.070000,364.924000,141.188000,364.143000C139.306000,363.362000,137.289000,362.960000,135.252000,362.960000L135.251000,362.960000L110.910000,362.961000L110.911000,379.010000Z" fill="rgb(47,46,65)" stroke="none" stroke-width="1"/>
    <path id="ecfVe7MIz4Q19" d="M131.541000,350.116000L156.181000,294.749000C158.238000,290.082000,158.466000,284.810000,156.818000,279.983000C155.171000,275.156000,151.769000,271.128000,147.291000,268.701000L93.844700,239.983000L69.456100,237.905000L51.835600,236.373000L51.838000,236.131000C51.630500,236.482000,46.793500,244.854000,50.063100,254.033000C52.543200,260.996000,53.953500,266.435000,64.196300,270.199000C88.104100,278.983000,115.722000,286.491000,126.487000,289.310000C126.963000,289.432000,127.407000,289.653000,127.791000,289.960000C128.176000,290.266000,128.491000,290.651000,128.716000,291.088000C128.942000,291.520000,129.076000,291.994000,129.110000,292.481000C129.144000,292.967000,129.077000,293.456000,128.914000,293.915000L106.022000,345.451000C105.783000,346.105000,105.697000,346.804000,105.771000,347.497000C105.844000,348.189000,106.075000,348.855000,106.446000,349.443000C106.817000,350.032000,107.318000,350.527000,107.911000,350.891000C108.503000,351.255000,109.171000,351.477000,109.863000,351.542000L126.968000,352.790000C127.113000,352.804000,127.257000,352.811000,127.401000,352.811000C128.277000,352.810000,129.134000,352.556000,129.869000,352.077000C130.604000,351.599000,131.184000,350.918000,131.541000,350.116000Z" fill="rgb(203,203,203)" stroke="none" stroke-width="1"/>
    <path id="ecfVe7MIz4Q20" d="M85.104900,237.383000C86.286300,236.546000,103.252000,245.465000,106.276000,238.393000C92.162000,203.036000,101.888000,187.768000,93.242600,167.492000C91.719800,163.995000,89.425800,160.889000,86.532900,158.408000C83.640100,155.927000,80.223700,154.135000,76.540500,153.167000L54.109500,152.033000L53.993300,152.089000C48.931600,154.573000,44.803600,158.626000,42.221400,163.646000C39.639200,168.667000,38.740300,174.387000,39.658000,179.959000C39.737800,202.026000,52.913700,218.855000,48.306600,234.861000C48.113400,235.530000,48.057000,236.231000,48.140900,236.922000C48.224700,237.614000,48.447000,238.281000,48.794400,238.885000C49.131300,239.468000,49.583800,239.976000,50.124000,240.377000C50.664300,240.778000,51.280800,241.064000,51.935600,241.217000L81.553700,237.258000C82.245600,237.423000,82.964700,237.439000,83.662900,237.303000C84.361100,237.168000,85.022600,236.885000,85.603100,236.473000L85.104900,237.383000Z" fill="rgb(47,46,65)" stroke="none" stroke-width="1"/>
    <path id="ecfVe7MIz4Q21" d="M61.595400,143.638000C75.270700,143.638000,86.356800,132.529000,86.356800,118.826000C86.356800,105.123000,75.270700,94.013900,61.595400,94.013900C47.920000,94.013900,36.834000,105.123000,36.834000,118.826000C36.834000,132.529000,47.920000,143.638000,61.595400,143.638000Z" fill="rgb(255,184,184)" stroke="none" stroke-width="1"/>
    <g id="ecfVe7MIz4Q22_tr" transform="translate(60.261209,113.988567) rotate(20)">
    <path id="ecfVe7MIz4Q22" d="M53.708200,141.600000C55.023800,142.177000,57.718000,131.672000,56.511100,129.571000C54.716400,126.447000,54.822400,126.469000,53.631000,124.402000C52.439600,122.335000,52.173000,119.506000,53.715900,117.687000C55.258800,115.868000,58.829200,116.109000,59.533400,118.390000C59.080400,114.058000,63.356200,110.576000,67.591500,109.598000C71.826900,108.619000,76.294400,109.227000,80.553100,108.356000C85.495500,107.345000,90.637900,103.194000,88.666000,97.748000C88.327600,96.841300,87.820900,96.007000,87.172800,95.289100C84.894500,92.722100,81.707400,91.626100,78.591300,90.566300C72.108800,88.361500,65.448900,86.129100,58.607500,86.372500C47.366500,86.772400,36.740900,94.558900,32.953600,105.172000C32.482100,106.496000,32.116900,107.856000,31.861400,109.238000C29.513100,121.890000,36.845400,134.370000,48.754300,139.188000L53.708200,141.600000Z" transform="translate(-60.261209,-113.988567)" fill="rgb(47,46,65)" stroke="none" stroke-width="1"/>
    </g>
    <path id="ecfVe7MIz4Q23" d="M183.562000,178.500000L186.401000,195.394000C186.433000,195.583000,186.412000,195.776000,186.341000,195.953000L164.064000,251.730000C163.976000,251.950000,163.815000,252.134000,163.608000,252.251000C163.401000,252.367000,163.160000,252.408000,162.926000,252.368000C162.692000,252.328000,162.479000,252.209000,162.322000,252.030000C162.165000,251.852000,162.074000,251.625000,162.064000,251.387000L161.120000,228.973000C161.114000,228.824000,161.140000,228.676000,161.195000,228.538000L181.577000,178.281000C181.662000,178.071000,181.813000,177.895000,182.007000,177.779000C182.201000,177.663000,182.427000,177.614000,182.652000,177.639000C182.876000,177.663000,183.086000,177.761000,183.251000,177.916000C183.415000,178.072000,183.524000,178.276000,183.562000,178.500000Z" fill="rgb(63,61,86)" stroke="none" stroke-width="1"/>
    <path id="ecfVe7MIz4Q24" d="M181.984000,179.797000L184.683000,194.311000L164.914000,245.208000L162.347000,228.835000L181.984000,179.797000Z" fill="rgb(255,255,255)" fill-opacity="0.9" stroke="none" stroke-width="1"/>
    <path id="ecfVe7MIz4Q25" d="M95.491800,251.470000C95.978200,253.373000,159.838000,255.432000,160.501000,254.857000C161.095000,254.119000,161.610000,253.321000,162.037000,252.475000C162.706000,251.278000,163.326000,250.076000,163.326000,250.076000L162.276000,229.839000L99.369100,223.103000C99.369100,223.103000,96.586000,239.991000,95.712300,247.750000C95.514900,248.979000,95.441100,250.226000,95.491800,251.470000Z" fill="rgb(63,61,86)" stroke="none" stroke-width="1"/>
    <path id="ecfVe7MIz4Q26" d="M154.045000,231.980000L154.051000,249.415000L126.228000,247.433000L127.459000,230.086000L154.045000,231.980000Z" opacity="0.1" fill="rgb(0,0,0)" stroke="none" stroke-width="1"/>
    <path id="ecfVe7MIz4Q27" d="M117.789000,235.001000L117.957000,234.980000L116.643000,242.392000L101.186000,241.290000L101.713000,233.855000L117.789000,235.001000Z" opacity="0.1" fill="rgb(0,0,0)" stroke="none" stroke-width="1"/>
    <path id="ecfVe7MIz4Q28" d="M95.491800,251.470000C95.978200,253.373000,159.838000,255.432000,160.501000,254.857000C161.095000,254.119000,161.610000,253.321000,162.037000,252.475000L95.712300,247.750000C95.514900,248.979000,95.441100,250.226000,95.491800,251.470000Z" opacity="0.1" fill="rgb(0,0,0)" stroke="none" stroke-width="1"/>
    <g id="ecfVe7MIz4Q29_tr" transform="translate(101.996677,217.103905) rotate(0)">
    <path id="ecfVe7MIz4Q29" d="M69.849500,224.249000L123.718000,234.323000C123.853000,234.661000,124.005000,234.992000,124.174000,235.314000C124.906000,236.694000,125.919000,237.904000,127.148000,238.866000C128.378000,239.827000,129.795000,240.519000,131.308000,240.896000C132.828000,241.279000,134.412000,241.332000,135.953000,241.052000C137.495000,240.773000,138.959000,240.166000,140.248000,239.273000C142.583000,237.667000,144.216000,235.227000,144.813000,232.453000C145.409000,229.679000,144.925000,226.782000,143.458000,224.355000C141.991000,221.927000,139.653000,220.154000,136.924000,219.399000C134.194000,218.643000,131.280000,218.962000,128.778000,220.291000C128.342000,220.525000,127.923000,220.790000,127.523000,221.082000L80.734400,205.066000L78.339600,192.979000L58.931600,194.265000L60.942600,214.528000C61.186700,216.893000,62.185000,219.115000,63.789400,220.867000C65.393900,222.618000,67.519100,223.804000,69.849500,224.249000Z" transform="translate(-101.996677,-217.103905)" fill="rgb(255,184,184)" stroke="none" stroke-width="1"/>
    </g>
    <path id="ecfVe7MIz4Q30" d="M58.274300,203.303000L86.475400,194.015000L79.897000,175.088000C79.023400,172.575000,77.291400,170.452000,75.007000,169.095000C72.722500,167.737000,70.032800,167.233000,67.413000,167.670000C64.762900,168.113000,62.358100,169.491000,60.632800,171.554000C58.907600,173.618000,57.975600,176.232000,58.005300,178.924000L58.274300,203.303000Z" fill="rgb(47,46,65)" stroke="none" stroke-width="1"/>
    <path id="ecfVe7MIz4Q31" d="M237.171000,380L0.620866,380C0.456202,380,0.298282,379.934000,0.181847,379.818000C0.065412,379.701000,0,379.543000,0,379.378000C0,379.213000,0.065412,379.055000,0.181847,378.938000C0.298282,378.821000,0.456202,378.756000,0.620866,378.756000L237.171000,378.756000C237.335000,378.756000,237.493000,378.821000,237.610000,378.938000C237.726000,379.055000,237.792000,379.213000,237.792000,379.378000C237.792000,379.543000,237.726000,379.701000,237.610000,379.818000C237.493000,379.934000,237.335000,380,237.171000,380Z" fill="rgb(203,203,203)" stroke="none" stroke-width="1"/>
    <path id="ecfVe7MIz4Q32" d="M329.187000,360.399000C340.533000,366.283000,345.577000,379.093000,345.577000,379.093000C345.577000,379.093000,332.227000,382.364000,320.881000,376.481000C309.536000,370.597000,304.491000,357.786000,304.491000,357.786000C304.491000,357.786000,317.842000,354.515000,329.187000,360.399000Z" fill="rgb(241,241,241)" stroke="none" stroke-width="1"/>
    <path id="ecfVe7MIz4Q33" d="M325.559000,364.637000C332.329000,375.492000,345.480000,379.494000,345.480000,379.494000C345.480000,379.494000,347.654000,365.896000,340.884000,355.040000C334.113000,344.185000,320.963000,340.183000,320.963000,340.183000C320.963000,340.183000,318.789000,353.782000,325.559000,364.637000Z" fill="rgb(241,241,241)" stroke="none" stroke-width="1"/>
    <path id="ecfVe7MIz4Q34" d="M366.311000,379.753000L295.532000,379.753000C295.367000,379.753000,295.209000,379.688000,295.093000,379.571000C294.977000,379.454000,294.911000,379.296000,294.911000,379.131000C294.911000,378.966000,294.977000,378.808000,295.093000,378.691000C295.209000,378.575000,295.367000,378.509000,295.532000,378.509000L366.311000,378.509000C366.475000,378.509000,366.633000,378.575000,366.750000,378.691000C366.866000,378.808000,366.932000,378.966000,366.932000,379.131000C366.932000,379.296000,366.866000,379.454000,366.750000,379.571000C366.633000,379.688000,366.475000,379.753000,366.311000,379.753000Z" fill="rgb(203,203,203)" stroke="none" stroke-width="1"/>
    <g id="ecfVe7MIz4Q35" transform="matrix(1 0 0 1 -2 3)" opacity="0">
    <g id="ecfVe7MIz4Q36" clip-path="url(#ecfVe7MIz4Q40)">
    <g id="ecfVe7MIz4Q37">
    <path id="ecfVe7MIz4Q38" d="M316.549000,40L356.434000,40C358.958000,40,361.001000,42.023400,361.001000,44.523100L361.001000,59.599600C361.001000,62.099100,358.958000,64.122700,356.434000,64.122700L342.131000,64.122700L344.094000,68.883600L335.460000,64.122700L316.569000,64.122700C314.045000,64.122700,312.001000,62.099300,312.001000,59.599600L312.001000,44.523100C311.981000,42.043300,314.025000,40,316.549000,40L316.549000,40Z" fill="rgb(127,84,179)" stroke="none" stroke-width="1"/>
    <path id="ecfVe7MIz4Q39" d="M314.790000,44.122500C315.069000,43.747700,315.487000,43.550500,316.045000,43.511000C317.061000,43.432100,317.639000,43.905500,317.778000,44.931200C318.396000,49.053800,319.073000,52.545000,319.790000,55.405200L324.152000,47.180000C324.551000,46.430400,325.048000,46.035900,325.646000,45.996500C326.522000,45.937300,327.060000,46.489600,327.279000,47.653400C327.777000,50.276800,328.415000,52.505600,329.172000,54.399200C329.690000,49.389000,330.566000,45.779500,331.801000,43.550500C332.100000,42.998200,332.538000,42.722100,333.116000,42.682600C333.574000,42.643200,333.992000,42.781300,334.371000,43.077100C334.749000,43.373000,334.948000,43.747800,334.988000,44.201400C335.008000,44.556500,334.948000,44.852300,334.789000,45.148200C334.012000,46.568400,333.375000,48.955200,332.857000,52.268800C332.359000,55.484000,332.180000,57.989000,332.299000,59.783900C332.339000,60.277000,332.259000,60.711000,332.060000,61.085800C331.821000,61.519700,331.462000,61.756400,331.004000,61.795800C330.486000,61.835300,329.949000,61.598600,329.431000,61.066000C327.578000,59.192200,326.104000,56.391300,325.029000,52.663200C323.734000,55.187900,322.778000,57.081700,322.161000,58.344000C320.985000,60.572800,319.989000,61.716900,319.153000,61.776100C318.615000,61.815500,318.157000,61.361800,317.758000,60.415000C316.743000,57.831000,315.647000,52.840700,314.472000,45.444000C314.392000,44.931200,314.512000,44.477500,314.791000,44.122500L314.790000,44.122500ZM357.596000,47.219300C356.879000,45.976600,355.824000,45.227000,354.410000,44.931100C354.031000,44.852200,353.673000,44.812700,353.334000,44.812700C351.422000,44.812700,349.868000,45.799000,348.653000,47.771500C347.617000,49.448100,347.099000,51.302300,347.099000,53.333800C347.099000,54.852600,347.418000,56.154400,348.055000,57.239300C348.773000,58.482000,349.828000,59.231600,351.242000,59.527500C351.621000,59.606400,351.979000,59.645800,352.318000,59.645800C354.250000,59.645800,355.804000,58.659600,356.999000,56.687100C358.035000,54.990800,358.553000,53.136600,358.553000,51.105100C358.572000,49.566500,358.234000,48.284500,357.596000,47.219300L357.596000,47.219300ZM355.087000,52.683000C354.808000,53.984800,354.310000,54.951300,353.573000,55.602300C352.995000,56.115200,352.457000,56.332200,351.959000,56.233500C351.481000,56.134900,351.083000,55.720700,350.784000,54.951400C350.545000,54.340000,350.426000,53.728500,350.426000,53.156500C350.426000,52.663400,350.466000,52.170200,350.565000,51.716600C350.744000,50.907900,351.083000,50.118900,351.621000,49.369300C352.278000,48.402800,352.975000,48.008300,353.692000,48.146400C354.170000,48.245000,354.569000,48.659200,354.868000,49.428500C355.107000,50.039900,355.226000,50.651400,355.226000,51.223400C355.226000,51.736300,355.186000,52.229400,355.087000,52.683000L355.087000,52.683000ZM345.127000,47.219300C344.410000,45.976600,343.335000,45.227000,341.940000,44.931100C341.562000,44.852200,341.203000,44.812700,340.865000,44.812700C338.953000,44.812700,337.399000,45.799000,336.184000,47.771500C335.148000,49.448100,334.630000,51.302300,334.630000,53.333800C334.630000,54.852600,334.949000,56.154400,335.586000,57.239300C336.303000,58.482000,337.359000,59.231600,338.773000,59.527500C339.152000,59.606400,339.510000,59.645800,339.849000,59.645800C341.781000,59.645800,343.335000,58.659600,344.530000,56.687100C345.565000,54.990800,346.083000,53.136600,346.083000,51.105100C346.083000,49.566500,345.765000,48.284500,345.127000,47.219300L345.127000,47.219300ZM342.598000,52.683000C342.319000,53.984800,341.821000,54.951300,341.084000,55.602300C340.506000,56.115200,339.968000,56.332200,339.470000,56.233500C338.992000,56.134900,338.594000,55.720700,338.295000,54.951400C338.056000,54.340000,337.937000,53.728500,337.937000,53.156500C337.937000,52.663400,337.976000,52.170200,338.076000,51.716600C338.255000,50.907900,338.594000,50.118900,339.132000,49.369300C339.789000,48.402800,340.486000,48.008300,341.203000,48.146400C341.681000,48.245000,342.080000,48.659200,342.379000,49.428500C342.618000,50.039900,342.737000,50.651400,342.737000,51.223400C342.757000,51.736300,342.697000,52.229400,342.598000,52.683000L342.598000,52.683000Z" fill="rgb(255,255,255)" stroke="none" stroke-width="1"/>
    </g>
    <clipPath id="ecfVe7MIz4Q40">
    <rect id="ecfVe7MIz4Q41" width="49" height="29" rx="0" ry="0" transform="matrix(1 0 0 1 312 40)" fill="rgb(255,255,255)" stroke="none" stroke-width="1"/>
    </clipPath>
    </g>
    <g id="ecfVe7MIz4Q42" clip-path="url(#ecfVe7MIz4Q45)">
    <g id="ecfVe7MIz4Q43">
    <path id="ecfVe7MIz4Q44" d="M293.195000,87.500100C293.195000,92.763400,296.242000,97.312000,300.660000,99.467500L294.341000,82.088500C293.607000,83.742200,293.195000,85.572300,293.195000,87.500100ZM315.382000,86.829100C315.382000,85.185700,314.794000,84.047600,314.289000,83.161800C313.618000,82.066400,312.989000,81.138900,312.989000,80.043500C312.989000,78.821200,313.912000,77.683400,315.213000,77.683400C315.271000,77.683400,315.327000,77.690700,315.384000,77.694000C313.028000,75.526600,309.888000,74.203300,306.440000,74.203300C301.813000,74.203300,297.742000,76.586800,295.373000,80.196900C295.684000,80.206200,295.977000,80.212800,296.226000,80.212800C297.611000,80.212800,299.756000,80.044000,299.756000,80.044000C300.470000,80.001800,300.554000,81.054600,299.841000,81.139400C299.841000,81.139400,299.123000,81.224100,298.325000,81.266100L303.148000,95.669400L306.047000,86.941900L303.983000,81.265600C303.270000,81.223600,302.594000,81.138900,302.594000,81.138900C301.880000,81.096900,301.964000,80.001300,302.678000,80.043500C302.678000,80.043500,304.865000,80.212300,306.167000,80.212300C307.552000,80.212300,309.697000,80.043500,309.697000,80.043500C310.411000,80.001300,310.495000,81.054100,309.781000,81.138900C309.781000,81.138900,309.062000,81.223600,308.265000,81.265600L313.052000,95.559800L314.373000,91.127600C314.946000,89.288400,315.382000,87.967400,315.382000,86.829100ZM306.672000,88.663200L302.698000,100.256000C303.885000,100.607000,305.140000,100.798000,306.440000,100.798000C307.982000,100.798000,309.462000,100.530000,310.838000,100.044000C310.803000,99.987400,310.771000,99.926900,310.744000,99.861200L306.672000,88.663200ZM318.062000,81.120400C318.119000,81.544000,318.151000,81.998600,318.151000,82.487700C318.151000,83.837100,317.900000,85.353900,317.144000,87.250600L313.098000,98.994100C317.036000,96.688800,319.685000,92.405900,319.685000,87.500300C319.685000,85.188500,319.097000,83.014500,318.062000,81.120400ZM306.440000,72C297.927000,72,291,78.953300,291,87.500100C291,96.047900,297.927000,103.001000,306.440000,103.001000C314.953000,103.001000,321.881000,96.047900,321.881000,87.500100C321.881000,78.953300,314.953000,72,306.440000,72ZM306.440000,102.290000C298.317000,102.290000,291.708000,95.655400,291.708000,87.500100C291.708000,79.345200,298.317000,72.710700,306.440000,72.710700C314.563000,72.710700,321.171000,79.345200,321.171000,87.500100C321.171000,95.655400,314.563000,102.290000,306.440000,102.290000Z" fill="rgb(33,117,155)" stroke="none" stroke-width="1"/>
    </g>
    <clipPath id="ecfVe7MIz4Q45">
    <rect id="ecfVe7MIz4Q46" width="31" height="31" rx="0" ry="0" transform="matrix(1 0 0 1 291 72)" fill="rgb(255,255,255)" stroke="none" stroke-width="1"/>
    </clipPath>
    </g>
    <g id="ecfVe7MIz4Q47">
    <path id="ecfVe7MIz4Q48" d="M349.547000,77.673800L358.070000,77.673800C360.571000,77.694800,362.384000,78.416000,363.508000,79.836200C364.631000,81.256400,365.002000,83.196200,364.621000,85.655600C364.472000,86.779400,364.144000,87.881600,363.635000,88.962800C363.147000,90.044000,362.469000,91.019000,361.600000,91.888400C360.539000,92.990600,359.405000,93.690200,358.197000,93.987200C356.989000,94.284200,355.738000,94.432400,354.445000,94.432400L350.629000,94.432400L349.420000,100.474000L345,100.474000L349.547000,77.673800L349.547000,77.673800ZM353.268000,81.299000L351.360000,90.839000C351.487000,90.860000,351.614000,90.870800,351.742000,90.870800C351.890000,90.870800,352.039000,90.870800,352.187000,90.870800C354.222000,90.891800,355.918000,90.690800,357.275000,90.266600C358.631000,89.821400,359.543000,88.274000,360.010000,85.623800C360.391000,83.397800,360.010000,82.115000,358.865000,81.776000C357.741000,81.437000,356.332000,81.278000,354.635000,81.299000C354.381000,81.320000,354.137000,81.330800,353.904000,81.330800C353.692000,81.330800,353.470000,81.330800,353.236000,81.330800L353.268000,81.299000" transform="matrix(1 0 0 1 -3 0)" fill="rgb(17,17,17)" stroke="none" stroke-width="1"/>
    <path id="ecfVe7MIz4Q49" d="M369.656000,71.600100L374.044000,71.600100L372.804000,77.673900L376.747000,77.673900C378.910000,77.716500,380.521000,78.161700,381.581000,79.009500C382.662000,79.857300,382.980000,81.468900,382.535000,83.843100L380.404000,94.432500L375.952000,94.432500L377.987000,84.320100C378.199000,83.259900,378.136000,82.507500,377.797000,82.062300C377.458000,81.617100,376.726000,81.394500,375.602000,81.394500L372.073000,81.362700L369.465000,94.432500L365.077000,94.432500L369.656000,71.600100Z" transform="matrix(1 0 0 1 -3 0)" fill="rgb(17,17,17)" stroke="none" stroke-width="1"/>
    <path id="ecfVe7MIz4Q50" d="M387.247000,77.673800L395.770000,77.673800C398.271000,77.694800,400.084000,78.416000,401.207000,79.836200C402.331000,81.256400,402.702000,83.196200,402.320000,85.655600C402.172000,86.779400,401.843000,87.881600,401.335000,88.962800C400.847000,90.044000,400.169000,91.019000,399.299000,91.888400C398.239000,92.990600,397.105000,93.690200,395.897000,93.987200C394.688000,94.284200,393.437000,94.432400,392.144000,94.432400L388.328000,94.432400L387.120000,100.474000L382.700000,100.474000L387.247000,77.673800L387.247000,77.673800ZM390.968000,81.299000L389.060000,90.839000C389.187000,90.860000,389.314000,90.870800,389.441000,90.870800C389.590000,90.870800,389.738000,90.870800,389.887000,90.870800C391.922000,90.891800,393.618000,90.690800,394.975000,90.266600C396.331000,89.821400,397.243000,88.274000,397.709000,85.623800C398.091000,83.397800,397.709000,82.115000,396.565000,81.776000C395.441000,81.437000,394.031000,81.278000,392.335000,81.299000C392.081000,81.320000,391.837000,81.330800,391.604000,81.330800C391.392000,81.330800,391.169000,81.330800,390.936000,81.330800L390.968000,81.299000" transform="matrix(1 0 0 1 -3 0)" fill="rgb(17,17,17)" stroke="none" stroke-width="1"/>
    </g>
    </g>
    <g id="ecfVe7MIz4Q51" transform="matrix(1 0 0 1 0 5)" opacity="0">
    <g id="ecfVe7MIz4Q52">
    <path id="ecfVe7MIz4Q53" d="M330.780000,84.428400C330.780000,82.408500,328.411000,80.494100,324.779000,79.307000C325.617000,75.354000,325.245000,72.209100,323.604000,71.202200C323.225000,70.966000,322.783000,70.854100,322.300000,70.854100L322.300000,72.240100C322.568000,72.240100,322.783000,72.296100,322.963000,72.401700C323.755000,72.886500,324.098000,74.732500,323.831000,77.106800C323.767000,77.691000,323.662000,78.306300,323.534000,78.934100C322.393000,78.635700,321.147000,78.405800,319.838000,78.256600C319.052000,77.106800,318.237000,76.062600,317.417000,75.148900C319.314000,73.265700,321.095000,72.233900,322.306000,72.233900L322.306000,70.847900C320.705000,70.847900,318.610000,72.066100,316.491000,74.179300C314.373000,72.078500,312.278000,70.872800,310.677000,70.872800L310.677000,72.258800C311.882000,72.258800,313.669000,73.284300,315.566000,75.155100C314.751000,76.068800,313.936000,77.106800,313.162000,78.256600C311.847000,78.405800,310.601000,78.635700,309.461000,78.940300C309.327000,78.318800,309.228000,77.715900,309.158000,77.137800C308.884000,74.763600,309.222000,72.917600,310.008000,72.426600C310.182000,72.314700,310.409000,72.265000,310.677000,72.265000L310.677000,70.879000C310.188000,70.879000,309.746000,70.990900,309.362000,71.227000C307.726000,72.233900,307.359000,75.372700,308.203000,79.313200C304.583000,80.506600,302.226000,82.414700,302.226000,84.428400C302.226000,86.448400,304.595000,88.362800,308.227000,89.549900C307.389000,93.502900,307.761000,96.647800,309.402000,97.654700C309.781000,97.890900,310.223000,98.002800,310.712000,98.002800C312.312000,98.002800,314.408000,96.784600,316.526000,94.671400C318.645000,96.772100,320.740000,97.977900,322.341000,97.977900C322.829000,97.977900,323.272000,97.866000,323.656000,97.629900C325.291000,96.623000,325.658000,93.484200,324.814000,89.543700C328.423000,88.356600,330.780000,86.442200,330.780000,84.428400ZM323.202000,80.282800C322.987000,81.084600,322.719000,81.911200,322.416000,82.737900C322.178000,82.240600,321.927000,81.743400,321.654000,81.246200C321.386000,80.749000,321.101000,80.264200,320.816000,79.791800C321.642000,79.922300,322.440000,80.083900,323.202000,80.282800ZM320.536000,86.902200C320.082000,87.741200,319.617000,88.536800,319.134000,89.276400C318.266000,89.357200,317.388000,89.400700,316.503000,89.400700C315.624000,89.400700,314.745000,89.357200,313.884000,89.282600C313.401000,88.543000,312.929000,87.753700,312.475000,86.920800C312.033000,86.106600,311.631000,85.280000,311.265000,84.447100C311.626000,83.614200,312.033000,82.781400,312.470000,81.967200C312.924000,81.128100,313.389000,80.332500,313.872000,79.592900C314.739000,79.512100,315.618000,79.468600,316.503000,79.468600C317.382000,79.468600,318.261000,79.512100,319.122000,79.586700C319.605000,80.326300,320.077000,81.115700,320.531000,81.948500C320.973000,82.762700,321.374000,83.589400,321.741000,84.422200C321.374000,85.255100,320.973000,86.087900,320.536000,86.902200ZM322.416000,86.094200C322.731000,86.927000,322.998000,87.759900,323.219000,88.567900C322.457000,88.766800,321.654000,88.934600,320.822000,89.065100C321.107000,88.586500,321.392000,88.095500,321.660000,87.592100C321.927000,87.094800,322.178000,86.591400,322.416000,86.094200ZM316.515000,92.725900C315.973000,92.129300,315.432000,91.464200,314.897000,90.737000C315.420000,90.761900,315.956000,90.780500,316.497000,90.780500C317.044000,90.780500,317.585000,90.768100,318.115000,90.737000C317.591000,91.464200,317.050000,92.129300,316.515000,92.725900ZM312.184000,89.065100C311.358000,88.934600,310.561000,88.773000,309.798000,88.574100C310.013000,87.772300,310.281000,86.945700,310.584000,86.119000C310.822000,86.616300,311.073000,87.113500,311.346000,87.610700C311.620000,88.107900,311.899000,88.592700,312.184000,89.065100ZM316.485000,76.131000C317.027000,76.727600,317.568000,77.392700,318.103000,78.119900C317.580000,78.095000,317.044000,78.076400,316.503000,78.076400C315.956000,78.076400,315.415000,78.088800,314.885000,78.119900C315.409000,77.392700,315.950000,76.727600,316.485000,76.131000ZM312.179000,79.791800C311.893000,80.270400,311.608000,80.761400,311.340000,81.264800C311.073000,81.762100,310.822000,82.259300,310.584000,82.756500C310.270000,81.923700,310.002000,81.090800,309.781000,80.282800C310.543000,80.090100,311.346000,79.922300,312.179000,79.791800ZM306.911000,87.573400C304.851000,86.634900,303.518000,85.404300,303.518000,84.428400C303.518000,83.452600,304.851000,82.215800,306.911000,81.283500C307.412000,81.053500,307.959000,80.848400,308.523000,80.655700C308.855000,81.873900,309.292000,83.141900,309.833000,84.440900C309.298000,85.733700,308.867000,86.995400,308.541000,88.207400C307.965000,88.014700,307.418000,87.803400,306.911000,87.573400ZM310.043000,96.455200C309.251000,95.970400,308.908000,94.124400,309.175000,91.750100C309.239000,91.165900,309.344000,90.550600,309.472000,89.922800C310.613000,90.221200,311.858000,90.451100,313.168000,90.600300C313.954000,91.750100,314.769000,92.794300,315.589000,93.708000C313.692000,95.591200,311.911000,96.623000,310.700000,96.623000C310.438000,96.616800,310.217000,96.560800,310.043000,96.455200ZM323.848000,91.719100C324.122000,94.093300,323.784000,95.939300,322.998000,96.430300C322.824000,96.542200,322.597000,96.591900,322.329000,96.591900C321.124000,96.591900,319.337000,95.566400,317.440000,93.695500C318.255000,92.781900,319.070000,91.743900,319.844000,90.594100C321.159000,90.444900,322.405000,90.214900,323.545000,89.910400C323.679000,90.538100,323.784000,91.141000,323.848000,91.719100ZM326.089000,87.573400C325.588000,87.803400,325.041000,88.008500,324.477000,88.201200C324.145000,86.983000,323.708000,85.715000,323.167000,84.416000C323.702000,83.123200,324.133000,81.861500,324.459000,80.649500C325.035000,80.842200,325.582000,81.053500,326.095000,81.283500C328.155000,82.222000,329.488000,83.452600,329.488000,84.428400C329.482000,85.404300,328.149000,86.641100,326.089000,87.573400Z" fill="rgb(97,218,251)" stroke="none" stroke-width="1"/>
    <path id="ecfVe7MIz4Q54" d="M316.497000,87.269000C317.966000,87.269000,319.157000,85.997300,319.157000,84.428600C319.157000,82.859800,317.966000,81.588100,316.497000,81.588100C315.028000,81.588100,313.837000,82.859800,313.837000,84.428600C313.837000,85.997300,315.028000,87.269000,316.497000,87.269000Z" fill="rgb(97,218,251)" stroke="none" stroke-width="1"/>
    </g>
    <g id="ecfVe7MIz4Q55">
    <path id="ecfVe7MIz4Q56" d="M344.232000,91.077000L345.310000,91.699500L357.321000,70.896000L356.243000,70.273500L344.232000,91.077000Z" fill="rgb(229,53,171)" stroke="none" stroke-width="1"/>
    <path id="ecfVe7MIz4Q57" d="M368.007000,89.415000L343.985000,89.415000L343.985000,90.660000L368.007000,90.660000L368.007000,89.415000Z" fill="rgb(229,53,171)" stroke="none" stroke-width="1"/>
    <path id="ecfVe7MIz4Q58" d="M344.460000,90.114300L356.476000,97.051800L357.099000,95.973600L345.083000,89.036100L344.460000,90.114300Z" fill="rgb(229,53,171)" stroke="none" stroke-width="1"/>
    <path id="ecfVe7MIz4Q59" d="M354.898000,72.033400L366.914000,78.970900L367.537000,77.892800L355.521000,70.955300L354.898000,72.033400Z" fill="rgb(229,53,171)" stroke="none" stroke-width="1"/>
    <path id="ecfVe7MIz4Q60" d="M344.464000,77.887900L345.086000,78.966100L357.102000,72.028600L356.479000,70.950400L344.464000,77.887900Z" fill="rgb(229,53,171)" stroke="none" stroke-width="1"/>
    <path id="ecfVe7MIz4Q61" d="M354.681000,70.896000L366.693000,91.699500L367.771000,91.077000L355.759000,70.273500L354.681000,70.896000Z" fill="rgb(229,53,171)" stroke="none" stroke-width="1"/>
    <path id="ecfVe7MIz4Q62" d="M346.182000,77.062500L344.938000,77.062500L344.938000,90.937500L346.182000,90.937500L346.182000,77.062500Z" fill="rgb(229,53,171)" stroke="none" stroke-width="1"/>
    <path id="ecfVe7MIz4Q63" d="M367.062000,77.062500L365.817000,77.062500L365.817000,90.937500L367.062000,90.937500L367.062000,77.062500Z" fill="rgb(229,53,171)" stroke="none" stroke-width="1"/>
    <path id="ecfVe7MIz4Q64" d="M355.720000,95.583400L356.264000,96.525100L366.715000,90.491400L366.171000,89.549600L355.720000,95.583400Z" fill="rgb(229,53,171)" stroke="none" stroke-width="1"/>
    <path id="ecfVe7MIz4Q65" d="M368.712000,91.342300C367.992000,92.594800,366.387000,93.022300,365.135000,92.302300C363.882000,91.582300,363.455000,89.977300,364.175000,88.724800C364.895000,87.472300,366.500000,87.044800,367.752000,87.764800C369.012000,88.492300,369.440000,90.089800,368.712000,91.342300Z" fill="rgb(229,53,171)" stroke="none" stroke-width="1"/>
    <path id="ecfVe7MIz4Q66" d="M347.817000,79.274900C347.097000,80.527400,345.492000,80.954900,344.240000,80.234900C342.987000,79.514900,342.560000,77.909900,343.280000,76.657400C344,75.404900,345.605000,74.977400,346.857000,75.697400C348.110000,76.424900,348.537000,78.022400,347.817000,79.274900Z" fill="rgb(229,53,171)" stroke="none" stroke-width="1"/>
    <path id="ecfVe7MIz4Q67" d="M343.287000,91.342300C342.567000,90.089800,342.995000,88.492300,344.247000,87.764800C345.500000,87.044800,347.097000,87.472300,347.825000,88.724800C348.545000,89.977300,348.117000,91.574800,346.865000,92.302300C345.605000,93.022300,344.007000,92.594800,343.287000,91.342300Z" fill="rgb(229,53,171)" stroke="none" stroke-width="1"/>
    <path id="ecfVe7MIz4Q68" d="M364.183000,79.274900C363.463000,78.022400,363.890000,76.424900,365.143000,75.697400C366.395000,74.977400,367.993000,75.404900,368.720000,76.657400C369.440000,77.909900,369.013000,79.507400,367.760000,80.234900C366.508000,80.954900,364.903000,80.527400,364.183000,79.274900Z" fill="rgb(229,53,171)" stroke="none" stroke-width="1"/>
    <path id="ecfVe7MIz4Q69" d="M356,98.684900C354.552000,98.684900,353.382000,97.514900,353.382000,96.067400C353.382000,94.620000,354.552000,93.450000,356,93.450000C357.447000,93.450000,358.617000,94.620000,358.617000,96.067400C358.617000,97.507400,357.447000,98.684900,356,98.684900Z" fill="rgb(229,53,171)" stroke="none" stroke-width="1"/>
    <path id="ecfVe7MIz4Q70" d="M356,74.549900C354.552000,74.549900,353.382000,73.379900,353.382000,71.932400C353.382000,70.484900,354.552000,69.314900,356,69.314900C357.447000,69.314900,358.617000,70.484900,358.617000,71.932400C358.617000,73.379900,357.447000,74.549900,356,74.549900Z" fill="rgb(229,53,171)" stroke="none" stroke-width="1"/>
    </g>
    <g id="ecfVe7MIz4Q71">
    <path id="ecfVe7MIz4Q72" d="M336,63C343.732000,63,350,56.732000,350,49C350,41.268000,343.732000,35,336,35C328.268000,35,322,41.268000,322,49C322,56.732000,328.268000,63,336,63Z" fill="rgb(102,51,153)" stroke="none" stroke-width="1"/>
    <path id="ecfVe7MIz4Q73" d="M328.200000,56.800000C326.100000,54.700000,325,51.900000,325,49.200000L335.900000,60C333.100000,59.900000,330.300000,58.900000,328.200000,56.800000ZM338.400000,59.700000L325.300000,46.600000C326.400000,41.700000,330.800000,38,336,38C339.700000,38,342.900000,39.800000,344.900000,42.500000L343.400000,43.800000C341.700000,41.500000,339,40,336,40C332.100000,40,328.800000,42.500000,327.500000,46L339,57.500000C341.900000,56.500000,344.100000,54,344.800000,51L340,51L340,49L347,49C347,54.200000,343.300000,58.600000,338.400000,59.700000Z" fill="rgb(255,255,255)" stroke="none" stroke-width="1"/>
    </g>
    </g>
    <g id="ecfVe7MIz4Q74" opacity="0">
    <path id="ecfVe7MIz4Q75" d="M407.876000,38.124000L362.754000,38.124000L362.754000,115.364000L407.876000,115.364000L407.876000,38.124000Z" fill="rgb(242,242,242)" stroke="none" stroke-width="1"/>
    <path id="ecfVe7MIz4Q76" d="M355.278000,38.122800L264.265000,38.122800L264.265000,59.384200L355.278000,59.384200L355.278000,38.122800Z" fill="rgb(25,25,25)" stroke="none" stroke-width="1"/>
    <path id="ecfVe7MIz4Q77" d="M355.278000,65.304900L264.265000,65.304900L264.265000,88.181100L355.278000,88.181100L355.278000,65.304900Z" fill="rgb(242,242,242)" stroke="none" stroke-width="1"/>
    <path id="ecfVe7MIz4Q78" d="M355.278000,94.013900L264.265000,94.013900L264.265000,115.275000L355.278000,115.275000L355.278000,94.013900Z" fill="rgb(242,242,242)" stroke="none" stroke-width="1"/>
    </g>
    </g>
    <clipPath id="ecfVe7MIz4Q79">
    <rect id="ecfVe7MIz4Q80" width="480" height="380" rx="0" ry="0" fill="rgb(255,255,255)" stroke="none" stroke-width="1"/>
    </clipPath>
    </g>
</svg>